<svg id="Layer_1" data-name="Layer 1" xmlns="http://www.w3.org/2000/svg" width="58.98777cm" height="58.9878cm" viewBox="0 0 1672.0942 1672.0952">
  <title>sigill-rgb</title>
  <g>
    <circle cx="851.85535" cy="852.38629" r="822.04702" transform="translate(-369.03357 835.67257) rotate(-45)" style="fill: #f27fa0;stroke: #231f20;stroke-width: 28px"/>
    <circle cx="836.05824" cy="836.04644" r="578.81085" style="fill: #fff;stroke: #231f20;stroke-width: 28px"/>
    <g>
      <path d="M340.21436,319.40918c-12.6543-15.32422-14.65821-17.42725-22.68848-11.87012l-3.61572,2.44824c-1.77686.125-4.14844-2.748-3.53174-4.60107,10.70312-10.44824,23.07763-21.47266,38.72119-34.39014,15.16455-12.52246,27.07373-20.209,42.15332-25.68115,24.95508-8.79443,52.49609-3.07764,72.13672,20.70654,14.63135,17.71875,20.8789,43.166,9.38867,69.56739-6.58789,15.10547-18.7334,28.35742-33.26025,40.35254-9.73682,8.04052-18.03028,13.27832-23.937,18.15527-6.06542,5.00879-13.11718,11.10059-19.877,17.21973-1.80322.41552-4.33642-2.32569-4.1416-4.36573l3.11572-3.3789c6.71143-7.15283,7.75342-8.81885-6.21972-25.73877Zm61.6206,36.90771c12.78662,15.48389,20.7583,22.86182,37.67822,8.88965,28.41455-23.46338,24.57569-54.12158,2.29834-81.09863-26.09912-31.606-57.10986-31.77148-83.76757-9.7583-6.70411,5.53564-10.75782,11.03076-11.085,12.91113-.32666,1.88086,2.28174,5.36475,8.47657,12.86719Z" transform="translate(-15.8081 -16.33829)" style="fill: #231f20"/>
      <path d="M521.7002,233.33887c1.69824.44824,3.69433,2.63965,5.04882,4.96533a11.3518,11.3518,0,0,1,1.72412,6.66211l-40.28222,28.73682c-1.69873-.44825-3.79785-2.81885-4.94483-4.78711a12.52073,12.52073,0,0,1-1.82812-6.84131Z" transform="translate(-15.8081 -16.33829)" style="fill: #231f20"/>
      <path d="M579.1123,165.43359c3.27784,3.30127,7.96338,10.28077,11.78614,17.87012-.3794,2.20654-3.04932,3.84473-4.96094,3.10889-8.46875-9.37744-17.44238-11.73438-26.52344-7.70117-7.94726,3.52783-10.95508,10.52587-8.01465,17.14795,3.36036,7.56787,12.126,8.43261,21.77247,8.22558,15.21826-.415,30.79248,1.50293,37.9331,17.58447,7.83545,17.13282-4.52832,32.13623-22.88184,40.28516-10.97265,4.87256-21.041,6.17334-27.998,4.27881-5.19092-4.03711-9.74854-11.75244-12.89844-19.8667.273-1.93408,3.04932-3.8457,5.12939-2.73145,8.53028,10.02881,21.41163,16.08692,34.08887,10.458,7.56836-3.36084,11.31153-10.23242,8.20264-17.23291-3.94776-8.89209-12.92236-11.249-23.68457-11.00049-14.29248.458-29.27783-2.1748-35.32715-15.79687-6.97266-15.70361,2.51172-30.56055,21.62061-39.04639C566.4375,166.98486,573.605,166.293,579.1123,165.43359Z" transform="translate(-15.8081 -16.33829)" style="fill: #231f20"/>
      <path d="M648.72119,178.19141c.98926,3.37793,1.2461,3.51855,5.6167,2.23828l7.35059-2.15235c10.92822-3.1997,12.65722-3.92236,12.50293-10.34814l-.20459-5.11768c.84228-1.541,4.27881-2.33105,5.6792-1.231,1.13964,4.62744,2.19628,9.71093,3.65136,14.67724,1.5708,5.36524,3.42188,10.21533,4.959,14.72754-.58692,1.68115-3.90625,2.86914-5.44678,2.02588l-2.58789-4.41943c-3.33594-5.49463-5.18115-5.16992-16.10889-1.97022l-7.35107,2.15283c-4.37158,1.27979-4.51123,1.53663-3.40674,5.31153l3.60693,12.31836c1.74659,5.96045,3.71436,11.20849,6.14161,12.87011,2.37109,1.46338,7.231,1.11866,19.54931-2.48877,16.09326-4.7124,18.249-9.87353,19.73438-21.74169,1.21631-1.00342,3.998-1.81739,5.79638-.834.65528,8.86817,1.17969,19.50049.49707,23.79834-12.63281,3.26807-23.22168,6.15283-33.94922,9.29492l-21.25976,6.2251c-7.94678,2.32666-15.43848,4.73633-24.66016,7.86816-1.62353-.38769-3.12646-4.04638-1.88525-5.70312l5.9834-2.3999c7.11865-2.94776,6.8999-5.90381,3.06006-19.0166l-12.10059-41.3252c-3.83984-13.11279-5.19189-15.52148-12.89258-14.561l-2.501.30078c-1.938-.72657-2.64649-4.61768-1.4878-5.81983,5.6792-1.23144,13.28809-3.24316,21.23487-5.5708l31.9873-9.3667c8.7417-2.55957,16.63086-5.08594,18.30225-6.00683,1.29492,2.20947,5.02246,11.25683,8.23681,20.023-.3291,1.82177-3.64843,3.00976-5.38916,2.22558a51.84345,51.84345,0,0,0-6.01855-7.29785c-3.54785-3.27539-8.94629-2.55762-18.68213.293l-10.52979,3.08349c-4.96728,1.45459-4.99121,2.10889-2.19873,11.64551Z" transform="translate(-15.8081 -16.33829)" style="fill: #231f20"/>
      <path d="M744.48486,153.42383c.55323,4.10351,1.02393,7.5918,3.07569,7.31494,4.92285-.66357,7.46435-3.5127,11.31347-9.04492l12.3833-18.16992c1.03711-1.60254,4.42188-7.48926,4.229-8.9253-.13867-1.02588-.8374-1.55859-2.94385-1.69238l-2.54443-.28369c-1.98438-.77735-2.30567-4.70313-.3916-6.00244,5.59423-.33643,11.57177-.93262,17.31689-1.707,5.12793-.69141,12.69141-1.91895,17.1499-2.93995,1.92969.3667,2.45508,4.26465,1.2124,5.894a55.84075,55.84075,0,0,0-9.92626,3.84472c-5.291,2.59278-11.0542,9.42676-18.51026,19.20508l-5.50293,7.2168c-1.77637,2.32764-2.19775,3.84717-2.08691,4.66748.13867,1.02588.74267,2.40674,6.811,8.69141,9.72754,10.17822,22.08594,24.38867,30.002,30.42431,3.93017,2.812,7.78808,3.5459,12.18017,3.58106l2.92774.02295c1.24658,1.50341,1.66162,4.58056.39111,6.00537-6.00488.39111-12.80322,1.09765-22.4458,2.39746-7.79639,1.05029-15.3877,2.07324-23.10059,3.73926-1.75195-.59961-2.50927-4.6753-1.00683-5.92188l2.78906-1.00244c3.37793-1.291,3.7998-2.81006,2.78516-4.13525-1.27442-1.709-6.67237-7.665-9.37208-10.64454l-9.28955-10.02783c-3.68457-4.09912-7.76953-9.60644-11.87255-9.05371-3.69239.49756-3.55469,1.52295-2.69678,7.88379L749.02,187.0708c1.82373,13.54053,2.85449,16.53516,10.55566,16.333l4.15918-.14258c1.80616,1.00977,1.92139,4.96338.59619,5.97754-7.4414.585-15.26562,1.43018-23.0625,2.48047-8.20507,1.106-15.97509,2.36133-22.07373,3.60107-1.54736-.62695-2.48242-4.47021-1.00683-5.92187l2.81689-.79737c7.45313-2.04834,7.68116-5.00439,5.85645-18.54492l-5.74951-42.67383c-1.82471-13.54052-2.855-16.53515-10.55664-16.333l-3.543.06006c-2.01172-.98243-2.333-4.9087-.187-6.03077,6.4165-.44629,14.24072-1.2915,22.44628-2.39746,7.79639-1.05029,15.56446-2.30615,22.28077-3.63086,1.752.59864,2.48144,4.46973,1.00634,5.92139l-4.0205,1.16895c-6.83692,1.96533-7.09278,4.71533-5.26856,18.25634Z" transform="translate(-15.8081 -16.33829)" style="fill: #231f20"/>
      <path d="M852.45215,126.51318c.0957-5.58886.30664-5.792-4.66162-5.87744l-6.41651-.10986c-5.38232-.09229-10.1499.23975-13.729,3.69775-2.31836,2.44532-3.81055,4.90381-5.96533,9.83643-1.2666,1.42724-4.56836.749-5.57422-.92383a225.10137,225.10137,0,0,0,6.00732-24.32861c.64307-1.23145,3.74707-1.17774,4.5542.07812.36035,3.11182,3.04395,3.57227,9.46045,3.68213l60.0249,1.03027c7.03711.1211,9.11133-.05078,10.624-3.75146,1.04883-.81055,4.15332-.75684,4.5459.49219a162.40849,162.40849,0,0,0-2.499,25.00927c-.85254,1.43457-4.376,1.58106-5.5957.31788-.54688-4.35694-1.51465-8.30762-4.36914-10.84082-2.44434-2.31934-7.18652-3.43653-14.63867-3.564l-5.38184-.09277c-3.51953-.06006-3.93555.13965-4.03223,5.728l-.90625,52.78077c-.23437,13.66113.33692,16.56982,7.98145,17.5288l5.57812.7168c1.63379,1.27051,1.15332,5.19629-.30957,5.99951-8.89257-.56689-16.75488-.90869-24.62011-1.04394-8.2793-.14209-16.14893-.07031-25.88477.17676-1.43457-.85254-1.78076-4.79248-.104-6.00586l6.42724-.51123c7.67286-.69678,8.34375-3.583,8.57813-17.24414Z" transform="translate(-15.8081 -16.33829)" style="fill: #231f20"/>
      <path d="M951.95508,186.80322c-1.79883,13.54444-1.59375,16.70459,5.89062,18.53467l4.04981.95557c1.47851,1.4497.5498,5.29443-.9961,5.92431-7.333-1.39209-15.10351-2.63379-22.90234-3.66992q-12.31347-1.6377-23.47754-2.49414c-1.32715-1.01172-1.21875-4.96582.58692-5.979l4.15918.13525c7.70117.18848,8.72558-2.8081,10.52734-16.35254l5.67187-42.68554c1.79981-13.54444,1.59473-16.70411-5.89062-18.53418l-4.04981-.95606c-1.47753-1.44971-.54882-5.29394.99707-5.92432q11.001,2.08887,23.31348,3.72559c7.79688,1.03613,15.623,1.86719,23.06543,2.439,1.32813,1.01171,1.2207,4.96533-.585,5.978l-4.15918-.13427c-7.70215-.18848-8.72754,2.8081-10.52637,16.35253Z" transform="translate(-15.8081 -16.33829)" style="fill: #231f20"/>
      <path d="M982.02148,169.855c7.26465-26.98633,33.45215-42.23291,63.8379-34.05322,32.98242,8.88037,43.76171,34.93554,37.35839,58.72412-7.42773,27.58642-33.03711,41.48779-62.22265,33.63037C988.41113,219.38379,975.40234,194.44287,982.02148,169.855Zm41.61817,50.86621c13.79394,3.71387,27.53223-3.522,34.09765-27.90967,6.24415-23.18847,2.86719-44.89257-15.92285-49.95117-11.39453-3.06787-27.37109,2.92139-34.47461,29.3086C1001.85059,192.55859,1004.25,215.501,1023.63965,220.72119Z" transform="translate(-15.8081 -16.33829)" style="fill: #231f20"/>
      <path d="M1171.30957,258.92236c-1.74023,3.75586-8.792,18.96973-9.80859,22.14942a6.99419,6.99419,0,0,1-4.35157.03613,7.76379,7.76379,0,0,1-1.792-1.05859c-.65918-3.5-2.125-9.19873-7.91015-26.25489L1133,210.13574c-3.2666-10.18359-5.52344-17.61914-6.90723-20.542-2.2041,3.77051-5.07617,9.96826-7.77539,15.791l-5.832,12.584c-3.74316,8.07666-6.05176,14.53564-6.90918,16.87695-2.83105,7.58594-2.73535,10.82471,2.82617,14.08741l4.14649,2.37744c.97949,1.82324-.58789,5.2041-2.90137,5.273-6.21094-3.335-10.44433-5.52539-15.89062-8.04981-5.44727-2.5249-9.10352-3.99072-16.41407-6.92285-1.34277-1.53467-.06445-5.27783,2.14942-5.62061l4.58008,1.43848c5.60742,1.686,7.95312-.42139,11.65039-6.92187,1.31933-2.3545,4.56738-8.37891,8.31152-16.45508l11.75-25.356c4.96289-10.70605,5.54395-12.94629,4.71094-16.07031-.61817-2.11182-5.36914-6.13965-7.07324-7.38526l-1.42969-1.34668c-.792-1.73681,1.32422-5.31884,3.08886-5.18359,6.876,3.87061,12.88672,6.65674,18.14551,9.09375,4.13282,1.91553,7.03614,3.03369,12.65723,5.17969-.31152,5.10351,1.09473,11.91553,5.583,25.86084l8.64746,26.14014c2.03027,5.96044,5.873,16.86767,7.15527,19.51611,1.07324-1.32861,1.76953-2.83106,3.6836-6.96289l4.96289-10.70606c3.74218-8.07666,6.05175-14.53564,6.9082-16.87695,2.83105-7.58594,2.64844-10.63721-2.16113-13.55078l-4.81055-2.91406c-.98047-1.82325.58594-5.20362,2.90039-5.271,5.83594,3.16162,10.06934,5.35156,15.8916,8.05078,5.44727,2.52393,9.10254,3.99024,16.41406,6.91992,1.34082,1.53467.06348,5.27735-2.14941,5.6211l-4.58105-1.439c-5.60743-1.686-8.14063.334-11.6504,6.92188-1.31933,2.35449-4.5664,8.3789-8.31054,16.45508Z" transform="translate(-15.8081 -16.33829)" style="fill: #231f20"/>
      <path d="M1236.19922,262.70947c-1.95313,2.92627-1.89649,3.21338,1.89062,5.74317l6.36914,4.25439c9.46875,6.32373,11.13379,7.18652,15.96,2.94238l3.792-3.44238c1.72265-.34326,4.53418,1.78418,4.58984,3.56445-2.8164,3.84375-6.03515,7.918-8.91015,12.2212-3.1045,4.64843-5.63379,9.18212-8.10645,13.25683-1.666.62988-4.707-1.15234-5.05078-2.87549l1.72656-4.82129c2.07227-6.085.63867-7.2915-8.83008-13.61572l-6.37011-4.25342c-3.78614-2.53027-4.07422-2.47265-6.25879.79786l-7.12891,10.67382c-3.44824,5.16407-6.209,10.042-5.92383,12.97022.39942,2.75635,3.78321,6.26221,14.45606,13.39062,13.94531,9.31348,19.28613,7.65284,29.33984,1.17383,1.54883.28809,3.959,1.898,4.35938,3.90772-6.37793,6.1958-14.19434,13.42382-17.92774,15.66015-10.61523-7.58838-19.623-13.85449-28.91992-20.06445l-18.41992-12.30273c-6.88672-4.59913-13.54395-8.79639-21.86328-13.856-.7461-1.49317,1.09472-4.99414,3.16211-5.10742l5.68164,3.04785c6.83007,3.56543,8.95507,1.501,16.54394-9.86084l23.916-35.80762c7.58886-11.36182,8.5664-13.94482,2.88672-19.23242l-1.835-1.72363c-.6875-1.95264,1.84082-4.99317,3.50585-4.87745,4.5918,3.564,11.01758,8.10547,17.90332,12.70459l27.7168,18.51172c7.5752,5.05957,14.57617,9.48682,16.35449,10.17676-.86328,2.41065-5.40625,11.07666-10.06445,19.16846-1.60937.91748-4.64941-.86524-5.165-2.70313a51.69936,51.69936,0,0,0,1.73047-9.2998c.23438-4.82276-3.78223-8.50049-12.21777-14.13526l-9.123-6.09375c-4.30371-2.87451-4.82129-2.47314-10.33984,5.79Z" transform="translate(-15.8081 -16.33829)" style="fill: #231f20"/>
      <path d="M1335.57031,383.83105c-2.7998,3.04981-14.1416,15.40186-16.07715,18.12159a6.98594,6.98594,0,0,1-4.15625-1.28809,7.71634,7.71634,0,0,1-1.38574-1.55273c.43457-3.53516.77051-9.40967.44238-27.41748l-.49511-45.98584c-.0166-10.69532.09179-18.46534-.33887-21.6709-3.24512,2.92236-7.86426,7.95459-12.20605,12.68164l-9.38086,10.21728c-6.02149,6.55664-10.18457,12.00879-11.71094,13.97852-5.00391,6.36719-5.89649,9.48193-1.58984,14.28027l3.22656,3.52539c.37988,2.03516-2.13965,4.77979-4.36524,4.14209-4.90429-5.06591-8.27148-8.439-12.69336-12.499-4.42187-4.06055-7.46-6.56836-13.53418-11.584-.81152-1.87012,1.543-5.04737,3.75586-4.70215l3.92774,2.76269c4.8291,3.311,7.70508,2.01612,13.20215-3.05371,1.97265-1.84228,6.89843-6.59424,12.91992-13.15137l18.90234-20.58593c7.98047-8.6919,9.21485-10.64942,9.3711-13.8794.05273-2.19971-3.249-7.48047-4.49414-9.18554l-.95313-1.71778c-.22559-1.89453,2.87891-4.66455,4.51758-3.999,5.374,5.77783,10.25488,10.2583,14.52441,14.17871,3.35449,3.08057,5.78223,5.02832,10.48438,8.78125-1.84766,4.76709-2.57813,11.68506-2.53907,26.335l.29395,27.53271c.123,6.2959.46875,17.85547.88574,20.76856,1.42481-.93994,2.54492-2.15967,5.626-5.51465l7.98047-8.69189c6.02148-6.55664,10.18359-12.00879,11.71191-13.979,5.00293-6.36718,5.75586-9.32959,2.0586-13.56787l-3.69727-4.23779c-.37988-2.03467,2.14062-4.77979,4.36426-4.13965,4.60058,4.78516,7.96679,8.1582,12.69433,12.499,4.42286,4.06006,7.459,6.56787,13.53418,11.58155.81348,1.87011-1.543,5.04785-3.7539,4.70263l-3.92774-2.76318c-4.8291-3.31055-7.85742-2.15625-13.2041,3.05371-1.97266,1.84277-6.89746,6.59424-12.91894,13.15137Z" transform="translate(-15.8081 -16.33829)" style="fill: #231f20"/>
    </g>
    <g>
      <path d="M133.50977,957.71973c-8.88623,1.42382-15.228,2.80664-17.82178,5.957-2.14649,2.53125-3.11231,5.60351-.832,19.82129,3.16259,19.72949,4.50781,22.42968,24.12549,27.66992,1.17382,1.63476,1.0957,4.56348-.18262,5.68066-7.69336-.22461-21.82813-1.96875-26.96875-3.332-.84131-7.52246-3.11426-22.83594-6.30664-42.74219L102.55957,952.291c-1.45312-9.06446-3.05566-17.92286-4.6084-25.33008.48242-1.53614,3.95215-2.63965,5.09717-1.18262l1.74414,5.19043c2.76074,8.124,3.19531,9.69629,21.6792,6.73242l66.11621-10.60254c18.48438-2.96289,18.76123-4.64843,18.66553-13.20117l-.08692-5.08984c.68995-1.38672,4.24414-1.957,5.21094-.47168,1.07031,8.94336,2.17481,16.96972,3.48535,25.14551,1.2544,7.82031,2.71436,15.78906,4.32422,23.55273-.45508,1.71387-3.981,2.46191-5.09765,1.18262l-1.3379-3.7959c-2.76123-8.126-3.37353-9.668-21.85791-6.7041Z" transform="translate(-15.8081 -16.33829)" style="fill: #231f20"/>
      <path d="M186.96436,1011.07031c.60253-1.69629,3.97509-2.37109,5.03906-1.38379q2.37817,9.43946,5.59326,19.75c2.03711,6.5293,4.24512,13.00684,6.51611,19.08789-.312,1.416-3.46972,2.7793-4.9292,1.72461l-1.415-3.3291c-2.67089-6.14355-5.40917-5.85449-16.751-2.31738l-24.229,7.55469c-15.46582,4.82324-24.69482,13.92382-20.355,27.84375,4.60938,14.77734,16.85987,17.17968,32.66895,12.25l14.26269-4.44825c7.38965-2.30566,12.89942-4.58886,14.90772-5.40332,6.541-2.60546,8.40039-4.50586,7.46875-9.30468l-.93164-4.80078c.60254-1.69727,3.6958-2.66211,5.09277-1.2129,1.47754,5.94922,2.53809,9.95508,4.09278,14.93946,1.55419,4.98242,2.74414,8.19336,5.12255,14.61914-.20507,1.75976-3.36279,3.123-4.87548,1.89746l-1.74805-3.792c-2.18848-4.59668-4.96924-5.04883-11.2627-3.46387-2.28759.52441-8.06543,1.94922-15.45507,4.25488l-15.12207,4.71485c-10.99756,3.42968-20.67237,3.24218-27.54249-.65039-6.86962-3.89063-12.28857-12.19336-15.12792-21.30176-3.05469-9.7959-4.45557-19.72852-1.64844-26.44922,3.05371-7.74023,9.88672-13.6416,22.77441-17.66113L175.23,1026.043c11.34131-3.53711,13.7583-4.85645,12.46289-11.42871Z" transform="translate(-15.8081 -16.33829)" style="fill: #231f20"/>
      <path d="M204.11816,1201.2334c-3.24365,1.5625-16.37939,7.88867-18.81787,9.46289a6.07027,6.07027,0,0,1-2.94336-2.37891,6.69448,6.69448,0,0,1-.61914-1.69922c1.48926-2.71484,3.65137-7.35156,9.18262-22.0039l14.40039-37.30274c3.4292-8.64257,6.01758-14.88476,6.70215-17.6123-3.562,1.31641-8.91357,3.89355-13.94092,6.31543l-10.86572,5.23242c-6.97363,3.35742-12.09082,6.42188-13.959,7.52148-6.09082,3.53223-7.81445,5.76172-5.87988,11.02247l1.47168,3.88671c-.34766,1.76661-3.2666,3.1709-4.8584,1.94043-2.33154-5.66992-3.96582-9.47851-6.23-14.18164-2.26562-4.70312-3.91162-7.707-7.20361-13.71289-.05469-1.77148,2.87109-3.58008,4.54639-2.58789l2.2832,3.49512c2.83545,4.22754,5.57471,4.10742,11.64648,1.78223,2.187-.85157,7.69483-3.10547,14.668-6.46387l21.894-10.54395c9.24366-4.45117,10.87159-5.63574,12.03711-8.19433.75-1.75977-.21728-7.08789-.67382-8.86621l-.21631-1.69336c.42627-1.60352,3.82617-2.8418,4.93652-1.77735,2.481,6.39649,4.98,11.58594,7.167,16.127,1.71778,3.56836,3.05176,5.92285,5.6416,10.46875-3.02636,3.25586-5.84326,8.6084-10.52734,20.45312l-8.624,22.334c-1.92725,5.124-5.36865,14.57324-5.96924,17.06054,1.45361-.30078,2.751-.92578,6.31885-2.64453l9.24414-4.45117c6.97363-3.35938,12.09082-6.42188,13.959-7.52148,6.09082-3.53321,7.65235-5.6836,6.02979-10.29688l-1.62158-4.61328c.34765-1.76563,3.26708-3.17188,4.85742-1.93848,2.1748,5.34668,3.80908,9.15332,6.23047,14.18067,2.26513,4.70312,3.91113,7.707,7.2041,13.71093.0542,1.77344-2.87061,3.582-4.54639,2.58985l-2.2832-3.49512c-2.83594-4.22851-5.65235-4.27051-11.647-1.78418-2.186.85352-7.69482,3.10742-14.668,6.46582Z" transform="translate(-15.8081 -16.33829)" style="fill: #231f20"/>
      <path d="M253.68555,1214.44434c9.21435-6.29493,11.89648-7.47461,8.92285-14.37989l-.71826-1.68847c-.36621-1.49414,2.95019-3.97852,4.51318-2.64844,6.88965,8.80859,13.07617,17.22461,20.082,27.48047,7.4126,10.84863,12.06592,20.53125,14.10108,28.2959,4.12451,15.92871-1.6001,30.52148-15.42139,39.96386-12.93018,8.835-26.80762,8.94141-40.3208,1.60743-8.23731-4.39942-15.66748-12.40235-22.978-23.10352-4.46728-6.53906-8.55127-14.42969-11.29248-18.44336-2.03125-2.97266-6.03857-8.51758-9.99023-13.666-.11621-1.44531,2.50341-3.67187,4.20752-3.09277l2.32812,2.77051c4.35107,5.0918,6.88574,4.01465,16.69434-2.6875Zm-16.52832,34.835c-8.917,6.09277-14.11035,10.29492-7.105,20.5498,10.76269,15.75391,27.96484,13.81055,43.42089,3.25,16.79395-11.47265,18.94-29.07031,9.59864-42.74316-5.68555-8.32324-6.38233-8.06543-12.92139-3.59766Z" transform="translate(-15.8081 -16.33829)" style="fill: #231f20"/>
      <path d="M361.521,1319.43848c-1.8584,3.59179-6.38721,9.33105-11.64893,14.51757-1.92773.27442-3.99609-1.498-3.896-3.27734,5.50391-9.50781,5.063-17.56445-.69628-24.00586-5.03809-5.63672-11.63233-6.26074-16.32911-2.06152-5.36816,4.79883-3.74755,12.28418-1.00439,20.21387,4.40088,12.48437,6.96484,25.88671-4.4419,36.084-12.09179,11.05078-27.80615,4.81641-39.44335-8.19922-6.9585-7.7832-10.71778-15.77148-11.0044-22.03516,1.958-5.37109,7.12891-11.20117,13.00488-15.9707,1.67237-.28906,3.99463,1.49805,3.62744,3.51758-6.02685,9.7334-7.60644,22.01172.43165,31.00195,4.79785,5.36817,11.48486,6.63477,16.4497,2.19532,6.30713-5.63868,5.86573-13.69336,2.79151-22.53516-4.18946-11.709-6.00489-24.8125,3.65771-33.45117,11.13818-9.957,25.96338-6.06641,38.08057,7.48633C356.85791,1309.36035,359.34131,1315.1084,361.521,1319.43848Z" transform="translate(-15.8081 -16.33829)" style="fill: #231f20"/>
      <path d="M460.69434,1371.8252c4.44091-6.11719,4.50586-6.51368.71875-9.26368l-8.15723-5.92187c-13.40186-9.72656-18.498-10.97852-32.45215-3.0918-1.65381.13477-4.39551-2.52344-3.92139-4.40332,8.18653-6.06836,16.92676-13.51367,21.64844-17.874a2.24613,2.24613,0,0,1,2.02539.58008,2.08572,2.08572,0,0,1,1.03223,1.64257c-1.915,4.16993.01807,5.7959,9.92432,12.98536l59.43359,43.13769c7.13721,5.18164,9.63965,6.33008,13.82031,4.24805a5.13719,5.13719,0,0,1,2.17041.68652,2.83671,2.83671,0,0,1,1.36475,2.10352c-5.792,4.915-16.04981,16.59668-18.99561,21.57519-1.57422.63672-4.26269-.86914-4.833-2.84082,6.353-12.73633,5.59424-17.51269-9.99316-28.82617l-8.30273-6.02637c-3.78711-2.75-4.14454-2.56445-8.585,3.55469l-45.67579,62.92969c-11.20752,15.43945-10.21386,16.82812-3.896,22.52637l4.8208,4.38964c.27978,1.75879-1.76856,4.27539-3.35742,4.0127-8.23682-6.42285-14.68653-11.32715-21.09619-15.97949-6.40918-4.65235-13.36182-9.47559-22.896-15.95118-.74268-1.42871,1.22656-4.44726,2.77441-4.43554l6.64746,3.71191c7.48047,4.09571,8.89747,4.90137,20.105-10.54Z" transform="translate(-15.8081 -16.33829)" style="fill: #231f20"/>
      <path d="M501.57715,1465.73242c-1.48926,2.67285-1.42041,2.91895,2.03906,4.84571l5.81738,3.24218c8.647,4.81934,10.15039,5.4502,14.0376,1.43457l3.04541-3.24707c1.46973-.41894,4.05469,1.22949,4.227,2.76856-2.17187,3.52734-4.67676,7.2832-6.86816,11.21386-2.36572,4.24512-4.2417,8.35254-6.09961,12.05469-1.39942.66309-4.16065-.66894-4.57813-2.13965l1.16016-4.29882c1.37061-5.418.043-6.36329-8.605-11.18165l-5.81689-3.24316c-3.459-1.92871-3.70411-1.8584-5.36866,1.12988l-5.43359,9.748c-2.62842,4.7168-4.67969,9.13672-4.22852,11.6543.53858,2.36133,3.71631,5.16406,13.46534,10.5957,12.73584,7.09766,17.248,5.28516,25.50878-1.03223,1.36377.14161,3.565,1.36817,4.05176,3.083-5.09521,5.81543-11.36279,12.625-14.44336,14.82422-9.73-5.83594-17.97509-10.63672-26.46631-15.36914l-16.82275-9.375c-6.28955-3.50586-12.35205-6.67773-19.917-10.48242-.74951-1.24219.60058-4.4043,2.38379-4.64649l5.1372,2.24414c6.168,2.61329,7.86622.67579,13.64942-9.70117l18.22607-32.70508c5.78369-10.377,6.45117-12.68359,1.15918-16.86914l-1.71191-1.36523c-.73194-1.64551,1.24756-4.457,2.69873-4.47266,4.227,2.76758,10.11426,6.25489,16.40332,9.75977l25.314,14.1084c6.91846,3.85449,13.29541,7.20215,14.88526,7.67675-.5791,2.14942-3.91162,9.97754-7.3833,17.31543-1.32959.90723-4.09033-.4248-4.665-1.98144a45.0212,45.0212,0,0,0,.8501-8.18164c-.13428-4.19531-3.87207-7.10156-11.57666-11.39649l-8.33252-4.64453c-3.93067-2.18945-4.35108-1.80664-8.55664,5.74121Z" transform="translate(-15.8081 -16.33829)" style="fill: #231f20"/>
      <path d="M580.56982,1501.5791c-1.32421,3.34766-2.44873,6.19336-.77539,6.85547,4.01758,1.58789,7.15528.50684,12.42578-2.05469l17.11377-8.52441c1.46778-.77442,6.53516-3.80371,6.999-4.97461.33105-.83691.02685-1.53711-1.51465-2.53418l-1.80957-1.29688c-1.17578-1.43164.249-4.54589,2.25146-4.71875,4.38721,2.1211,9.1753,4.209,13.8628,6.06055,4.18408,1.65528,10.44384,3.9375,14.26074,5.05567,1.30713,1.09863.05029,4.27832-1.58545,4.9873a48.62356,48.62356,0,0,0-9.1626-1.30078c-5.11572-.28125-12.39111,2.45508-22.20068,6.70508l-7.24121,3.13867c-2.33594,1.01172-3.3003,1.98437-3.56543,2.6543-.33154.83593-.459,2.14062,1.47461,9.48632,3.05468,11.85352,6.394,27.88379,9.835,35.82422a17.16166,17.16166,0,0,0,7.71826,7.89258l2.21094,1.26074c.3081,1.66895-.68506,4.18067-2.25342,4.72168-4.72119-2.2539-10.17871-4.60547-18.04541-7.71679-6.36133-2.51563-12.5542-4.96387-19.11426-6.97657-1.07422-1.19922.08252-4.61328,1.75244-4.91992l2.542.42383c3.10986.45508,4.07519-.51758,3.86914-1.95313-.24073-1.83789-1.80567-8.65039-2.58789-12.05664l-2.78663-11.55273c-1.05468-4.67578-1.81347-10.58887-5.16113-11.91309-3.01269-1.19043-3.34375-.35449-5.39551,4.835l-3.97119,10.043c-4.36816,11.04688-4.8584,13.75586,1.06983,16.875l3.21533,1.65821c.9414,1.5332-.65039,4.58105-2.08692,4.78906-5.89355-2.71875-12.1875-5.40039-18.54834-7.916-6.69531-2.64746-13.12158-4.99511-18.27636-6.6455-.90625-1.13379.01611-4.44629,1.75244-4.9209l2.47607.59179c6.52344,1.61133,7.95215-.53222,12.32032-11.58007l13.7666-34.81543c4.36865-11.04688,4.85937-13.75684-1.06934-16.876l-2.71338-1.459c-1.10888-1.60059.31641-4.71485,2.41944-4.65332,5.05712,2.38574,11.35107,5.06933,18.04638,7.71582,6.36084,2.51562,12.7876,4.86328,18.44629,6.71,1.07373,1.19922-.0166,4.44629-1.75195,4.92089l-3.54688-.82128c-6.022-1.41407-7.38476.56347-11.75293,11.61035Z" transform="translate(-15.8081 -16.33829)" style="fill: #231f20"/>
      <path d="M714.7876,1573.01855c-.83252,3.502-4.20362,17.6875-4.52,20.57325a6.078,6.078,0,0,1-3.70166.78418,6.75664,6.75664,0,0,1-1.70947-.59082c-1.16895-2.86817-3.40577-7.46973-11.29053-21l-19.875-34.69629c-4.54785-8.11133-7.76026-14.05664-9.4458-16.30664-1.22461,3.59472-2.59766,9.373-3.88867,14.80273l-2.78809,11.73242c-1.79,7.53028-2.63867,13.43457-2.96289,15.57813-1.09815,6.95508-.45508,9.69726,4.84912,11.51367l3.94434,1.30664c1.15185,1.38379.40234,4.53613-1.55664,4.99512-5.87159-1.76465-9.85791-2.89746-14.93653-4.10449s-8.44678-1.82325-15.18506-3.05469c-1.40966-1.07422-.96875-4.48633.85694-5.16211l4.15234.43262c5.07031.46484,6.70361-1.73731,8.72754-7.917.71582-2.23437,2.44043-7.92968,4.23-15.46093l5.61865-23.64063c2.37305-9.98242,2.48047-11.99219,1.229-14.50976-.89307-1.69239-5.63819-4.30079-7.30664-5.06641l-1.45118-.90039c-.97607-1.3418.20655-4.76172,1.73243-4.95313,6.52978,2.10645,12.13378,3.4375,17.03711,4.6045,3.852.915,6.521,1.36425,11.6831,2.2207.61816,4.40332,2.99756,9.96387,9.23877,21.06738l11.89844,20.77539c2.76172,4.72656,7.92676,13.35547,9.47851,15.38867.6836-1.31836,1.01709-2.71875,1.93262-6.57128l2.37305-9.98243c1.78906-7.53027,2.6372-13.43457,2.96142-15.57715,1.09815-6.95507.41309-9.52246-4.18994-11.17187l-4.60351-1.64941c-1.15088-1.38379-.40235-4.53614,1.55664-4.99512,5.521,1.68262,9.50683,2.8164,14.93554,4.10547,5.07862,1.207,8.44776,1.82324,15.186,3.05468,1.41015,1.07422.96875,4.48438-.85693,5.16114l-4.15235-.43164c-5.06982-.46582-6.8789,1.69433-8.72754,7.917-.71631,2.23437-2.44043,7.92969-4.23,15.46094Z" transform="translate(-15.8081 -16.33829)" style="fill: #231f20"/>
      <path d="M771.1958,1580.32324c-1.43115,11.79395-1.22021,14.53906,5.3042,16.05664l3.53125.791c1.29932,1.24414.52979,4.59668-.80762,5.16015-6.39013-1.13769-13.1582-2.14062-19.94873-2.96484q-10.72119-1.30078-20.436-1.93555c-1.16407-.86718-1.10938-4.30468.45019-5.2041l3.61719.07617c6.69824.0879,7.55957-2.52832,8.99121-14.32128l4.50879-37.168c1.43164-11.79395,1.2207-14.53907-5.3042-16.05664l-3.53076-.791c-1.29932-1.24512-.52979-4.59766.80615-5.1582q9.58374,1.70654,20.30567,3.00781c6.79.82422,13.60253,1.46973,20.081,1.89062,1.16357.86622,1.10889,4.30469-.45068,5.20411l-3.61719-.07618c-6.69824-.08789-7.55957,2.52832-8.99072,14.32129Z" transform="translate(-15.8081 -16.33829)" style="fill: #231f20"/>
      <path d="M856.22168,1527.88184c1.33691,3.81836,2.39844,11.0498,2.55762,18.43652-1.124,1.58984-3.834,1.876-5.0586.582-3.13281-10.5293-9.29248-15.73926-17.9292-15.97559-7.55664-.207-12.53808,4.15821-12.71,10.45508-.19677,7.19825,6.35694,11.15821,14.00489,14.60938,12.09765,5.37109,23.60107,12.709,23.1831,28.00293-.26855,16.37793-15.58887,23.52148-33.042,23.04394-10.436-.28515-18.82373-3.03515-23.57324-7.12695-2.56153-5.11133-3.249-12.87305-2.68213-20.41992.93847-1.41406,3.833-1.875,5.04736-.22168,2.93848,11.06347,10.77979,20.6416,22.835,20.97168,7.19629.19726,12.70752-3.79395,12.88916-10.45117.23194-8.457-5.92822-13.667-14.46582-17.502-11.38769-4.99218-22.16113-12.66992-21.80615-25.625.40723-14.93359,13.41357-23.041,31.58643-22.54394C845.69482,1524.35254,851.57813,1526.49512,856.22168,1527.88184Z" transform="translate(-15.8081 -16.33829)" style="fill: #231f20"/>
      <path d="M907.19336,1552.81934c.34375,3.584.63672,6.6289,2.42773,6.457,4.30079-.41407,6.60352-2.80469,10.13282-7.4834l11.36132-15.37793c.95508-1.35742,4.09082-6.35938,3.97071-7.61426-.08692-.89551-.67578-1.38183-2.502-1.56836l-2.20117-.33105c-1.69922-.74024-1.84765-4.16211-.13965-5.23242,4.87305-.10645,10.08594-.42579,15.10254-.90821,4.48047-.42969,11.09278-1.24707,14.99707-1.98144,1.665.38183,1.99121,3.78711.8584,5.16113a48.87228,48.87228,0,0,0-8.7539,3.01172c-4.68164,2.07715-9.916,7.82422-16.71875,16.07324l-5.02149,6.08789c-1.61914,1.96387-2.03711,3.26953-1.96777,3.98633.08594.89648.56543,2.11621,5.62988,7.77734,8.11328,9.167,18.38086,21.92383,25.05762,27.43067a17.15737,17.15737,0,0,0,10.46582,3.51562l2.543.11817c1.0332,1.34765,1.291,4.03418.14258,5.22754-5.23047.14062-11.16211.52929-19.583,1.33886-6.80762.6543-13.43848,1.292-20.19824,2.48535-1.50293-.5791-2.0254-4.14648-.67872-5.17968l2.458-.7793c2.97754-1.00781,3.39258-2.31445,2.55664-3.5-1.05078-1.52637-5.543-6.88086-7.79-9.55859l-7.73828-9.02149c-3.0664-3.68359-6.43261-8.60547-10.01562-8.26172-3.22559.31055-3.13965,1.20606-2.60645,6.76172l1.03321,10.75c1.13574,11.82617,1.93164,14.46289,8.62988,14.542l3.61914.01465c1.53613.93653,1.5039,4.376.32031,5.21192-6.48535.26074-13.31152.73535-20.12012,1.38964-7.168.68946-13.959,1.52344-19.30078,2.39844-1.32324-.5957-2.00781-3.96679-.67773-5.17969l2.47461-.59863c6.543-1.53222,6.83984-4.09277,5.70312-15.91894L887.084,1546.794c-1.13476-11.82618-1.93164-14.4629-8.63085-14.543l-3.08008-.06543c-1.71582-.91992-1.86328-4.34278.03906-5.24707,5.58887-.17578,12.416-.65039,19.583-1.33985,6.80859-.65429,13.60058-1.4873,19.47754-2.41308,1.50195.5791,2.00879,3.96582.67968,5.17871l-3.5332.88281c-6.00586,1.48047-6.31934,3.86133-5.18359,15.6875Z" transform="translate(-15.8081 -16.33829)" style="fill: #231f20"/>
      <path d="M1002.08691,1563.4082c-3.50683.81446-3.68164.85547-4.22753,4.86328l-1.19922,9.14844c-.85254,6.666-.041,7.77149,3.76269,7.44141l4.3291-.45215c1.47266.7666,1.72071,4.2207.48047,5.248-5.86719.99414-10.29,1.83789-15.02344,2.9375a105.31181,105.31181,0,0,0-11.9746,3.33789c-1.916-.293-2.94727-3.9336-1.708-4.96094l3.0332-1.25977c6.06738-2.51953,6.18457-4.39453,8.81934-18.498l7.87695-43.22461c.96191-5.39649,1.0918-8.01563.21094-10.21289,4.09765-2.2461,9.05175-8.75586,9.65625-10.92969a2.95293,2.95293,0,0,1,1.67187-.75781c.70117-.16309,1.60645.55078,2.63281,1.78906,1.06836,1.416,3.15235,4.8125,13.05079,18.77246l26.49023,37.6377c4.65137,6.49414,6.123,7.26074,12.59766,6.49511l1.793-.2334c1.60742.55079,2.32812,4.44922.65429,5.209-5.33984.873-11.166,2.041-18.17773,3.67187-6.66211,1.54883-11.88086,2.94727-17.40821,4.60157-1.876-.11914-3.002-3.36817-1.709-4.96289l2.81836-1.39454c2.99219-1.43457,3.88086-2.38085,1.87891-5.42578l-6.68164-10.459c-2.083-3.39649-2.4336-3.31445-7.167-2.21289Zm11.07422-9.59668c5.43457-1.26367,5.91992-1.56152,3.44629-5.05175-4.90918-6.80567-10.27832-14.7959-12.96875-18.4209-1.33789,6.96386-2.07226,11.7539-3.6582,23.21093-.40039,3.04981-.66895,3.48047,3.88867,2.42188Z" transform="translate(-15.8081 -16.33829)" style="fill: #231f20"/>
      <path d="M1141.9248,1483.92969c-8.21972,4.08886-8.542,4.65136-6.37792,9.0039l11.78613,23.68946c8.499,17.083,10.11035,16.68359,18.165,13.88281l5.15625-1.76074c1.68847.5664,2.9707,3.54785,2.002,4.834-8.541,3.84766-15.873,7.293-22.96387,10.82227-7.09082,3.52734-14.26269,7.29687-20.22656,10.665-1.61035-.00293-3.21387-2.8252-2.64746-4.51368l2.0957-1.44433c7.01367-4.89649,8.22461-6.10156-.27539-23.18555l-29.82519-59.95019c-8.499-17.083-10.19043-16.84473-18.2461-14.04395l-3.78613,1.28125c-1.52832-.24414-2.9707-3.54883-2.002-4.834,7.25-3.20508,14.90527-6.81348,21.99609-10.3418,7.08984-3.52734,14.2627-7.29492,20.3877-10.74414,1.61035.00195,3.376,3.14551,2.64843,4.51269l-2.501,1.84668c-6.93164,5.05664-8.30176,5.94043.19726,23.02344l9.70117,19.5c2.24415,4.51172,2.88868,4.59375,11.10743.50586l37.71191-18.76269c8.21973-4.08887,8.542-4.65235,6.29688-9.165l-9.7002-19.5c-8.5-17.082-10.19141-16.84375-18.24707-14.043l-3.78516,1.28125c-1.52832-.24512-2.97168-3.54883-2.00293-4.834q11.35987-5.04931,21.9961-10.33984c7.09082-3.52734,14.26367-7.29688,20.5498-10.82715,1.61035.00293,3.375,3.14551,2.64746,4.51367l-2.66113,1.92578c-6.93262,5.05762-8.30273,5.94043.19629,23.02442l29.82617,59.95019c8.498,17.083,10.18945,16.84473,18.24414,14.04395l3.78711-1.28125c1.68848.56641,2.9707,3.54785,2.001,4.83594-7.25,3.20507-14.583,6.65136-21.67383,10.17871q-11.11964,5.53271-21.51563,11.30761c-1.61035-.0039-3.21386-2.82519-2.64746-4.51367l3.30469-2.248c7.09375-4.73438,8.30469-5.93946-.19531-23.02344l-11.78516-23.68945c-2.165-4.35157-2.80859-4.4336-11.02734-.34375Z" transform="translate(-15.8081 -16.33829)" style="fill: #231f20"/>
      <path d="M1219.27832,1388.1123c-3.33105-4.47558-2.7334-10.30664,1.8877-13.74414a9.33372,9.33372,0,0,1,12.84472,1.88379c3.54688,4.76465,2.7334,10.30567-1.4541,13.42188C1228.08008,1393.00488,1223.07617,1392.915,1219.27832,1388.1123Zm22.11231,64.99122c-14.50586-19.49414-10.8086-45.58106,11.14062-61.915,23.82617-17.73047,47.418-11.05469,60.20508,6.1289,14.83008,19.92774,10.52344,44.89551-10.5586,60.584C1278.64063,1475.418,1254.60938,1470.86523,1241.39063,1453.10352Zm1.71484-82.72168c-3.332-4.47657-2.73438-10.30567,1.88672-13.74414a9.21349,9.21349,0,0,1,12.8457,1.88281c3.5459,4.76562,2.877,10.19922-1.45508,13.42285C1251.90625,1375.27441,1246.90234,1375.18262,1243.10547,1370.38184Zm55.42187,81.71093c9.96485-7.415,12.42579-20.68945-.68457-38.30664-12.46582-16.75-29.09863-26.13672-42.67285-16.03515-8.23047,6.125-12.748,20.25586,1.4375,39.31836C1267.56836,1451.79688,1284.52051,1462.5166,1298.52734,1452.09277Z" transform="translate(-15.8081 -16.33829)" style="fill: #231f20"/>
      <path d="M1400.01074,1350.4248c3.18653,3.17872,4.58789,4.32227,7.63965,2.28223a3.0193,3.0193,0,0,1,2.03906,2.543c-4.70019,7.51465-12.57812,18.97949-19.57129,25.98828-10.93261,10.958-23.27246,17.46387-35.87207,17.86035-10.18261.26563-20.49609-4.43164-27.50586-11.42578-6.88085-6.86426-12.23828-16.53125-12.251-28.49512-.01367-11.71,5.95215-25.84472,17.64941-37.56835,8.00977-8.02735,18.69336-14.40333,21.7461-16.18946a176.35623,176.35623,0,0,0,15.79785,13.21973c.63769,1.39844-1.39551,3.94726-3.17871,3.94922-12.09668-6.22266-21.51368-4.17578-30.541,4.87109-12.459,12.48828-8.875,29.793,4.50391,43.14258,15.92773,15.8916,34.51172,16.125,45.9541,4.65723,5.085-5.09668,5.21-6.49707,1.51562-10.1836l-5.35156-5.34082c-4.84277-4.83008-6.11621-5.59277-12.60156-.876l-3.68848,2.67675c-1.65429.38379-4.07617-2.28711-3.31445-4.06933,5.08691-4.58692,10.04492-9.04785,15.76562-14.78223,4.19727-4.20508,7.62891-8.1543,11.69532-12.74023,1.78125-.76758,4.457,1.64843,3.94922,3.43164l-1.52344,2.293c-2.92285,4.457-2.15821,5.47558,2.8125,10.43359Z" transform="translate(-15.8081 -16.33829)" style="fill: #231f20"/>
      <path d="M1399.5293,1247.46c3.86523,1.19336,10.31445,4.63281,16.34961,8.89453.61328,1.84864-.76563,4.19727-2.53516,4.41406-10.332-3.73339-18.18262-1.873-23.502,4.93458-4.65625,5.95605-4.10352,12.55664.86133,16.43652,5.67285,4.43359,12.75195,1.51367,20.07128-2.58985,11.50879-6.541,24.24317-11.4375,36.29981-2.01562,13.01758,9.94531,9.66308,26.51367-1.08887,40.27148-6.42871,8.22559-13.624,13.33985-19.7373,14.73047-5.63282-.97558-12.28516-5.03222-18.02149-9.97168-.58008-1.59472.76758-4.19726,2.82032-4.19238,10.64648,4.209,23.00976,3.58984,30.43554-5.91309,4.4336-5.67285,4.498-12.47753-.75-16.57812-6.666-5.21-14.51758-3.34863-22.67383,1.24121-10.78125,6.19531-23.35742,10.30273-33.56836,2.32227-11.77148-9.2002-10.56933-24.48047.626-38.80469C1390.4375,1253.832,1395.6543,1250.37207,1399.5293,1247.46Z" transform="translate(-15.8081 -16.33829)" style="fill: #231f20"/>
      <path d="M1449.84375,1221.249c3.08984,1.84766,5.71484,3.418,6.64063,1.873,2.21679-3.707,1.65625-6.97852-.01856-12.5957l-5.64355-18.2666c-.52735-1.57325-2.69532-7.06641-3.77735-7.71192-.77246-.46289-1.51269-.27637-2.74609,1.083l-1.57227,1.57715c-1.60351.92773-4.44531-.98242-4.29492-2.98828,2.80274-3.98633,5.63672-8.373,8.22461-12.69922,2.30859-3.86133,5.57422-9.66992,7.29785-13.25391,1.2959-1.11328,4.23047.64258,4.665,2.3711a48.5906,48.5906,0,0,0-2.76562,8.832c-1.10547,5.002.418,12.626,3.02636,22.99414l1.92481,7.65332c.62109,2.46972,1.42383,3.5791,2.043,3.94922.77148.46191,2.03808.7998,9.59961.0791,12.19336-1.09766,28.55468-1.79981,36.94726-3.91113a17.16405,17.16405,0,0,0,9.03711-6.34083l1.60254-1.97851c1.69727-.0332,4.01465,1.35351,4.293,2.99023-2.98731,4.2959-6.19043,9.30078-10.53418,16.56153-3.51074,5.87011-6.92969,11.58691-9.97656,17.73242-1.35743.86621-4.53907-.82715-4.57227-2.52442l.83008-2.44042c.95312-2.99512.14844-4.10645-1.30176-4.13477-1.85254-.05957-8.8291.38184-12.31738.60352l-11.85254.88085c-4.78418.28516-10.74316.07715-12.59082,3.167-1.66406,2.77929-.89063,3.24218,3.89844,6.10644l9.26953,5.54395c10.19531,6.09765,12.78906,7.01953,16.82617,1.67383l2.15625-2.9043c1.666-.68164,4.416,1.38281,4.38867,2.834-3.63672,5.377-7.30176,11.15528-10.81348,17.02539-3.69433,6.17871-7.05175,12.14063-9.51464,16.96094-1.26368.71094-4.38477-.73633-4.57227-2.52539l.98438-2.34766c2.64648-6.17773.76171-7.93457-9.4336-14.0332l-32.13281-19.21777c-10.19727-6.09864-12.791-7.02051-16.82715-1.67481l-1.87988,2.44141c-1.75781.83594-4.60156-1.07422-4.20313-3.14258,3.17383-4.60547,6.83985-10.38281,10.53418-16.56152,3.51172-5.87012,6.86817-11.832,9.6084-17.11621,1.35742-.86719,4.38477.73437,4.57227,2.52539l-1.38477,3.36718c-2.36914,5.7129-.63672,7.37891,9.55762,13.47657Z" transform="translate(-15.8081 -16.33829)" style="fill: #231f20"/>
      <path d="M1493.41406,1170.98535c-22.39062-9.44238-32.43554-33.79883-21.80468-59.01074,11.54-27.36621,35.25781-33.5791,54.99414-25.25586,22.88867,9.65137,31.84375,33.35352,21.63281,57.56934C1536.83594,1171.32129,1513.81641,1179.58789,1493.41406,1170.98535Zm48.72949-29.85351c4.8252-11.44434.21387-24.13282-20.02148-32.666-19.24023-8.11328-38.335-7.76465-44.90918,7.82617-3.9873,9.4541-.71289,23.92383,21.18164,33.15528C1515.3125,1156.58105,1535.35938,1157.2207,1542.14355,1141.13184Z" transform="translate(-15.8081 -16.33829)" style="fill: #231f20"/>
      <path d="M1555.71094,1046.04492c5.38476,1.46192,10.69043,2.52832,13.24707,1.35645,1.7666-1.01172,3.7373-3.46094,6.33105-13.01465,3.584-13.20215,3.47071-16.21777-7.62207-24.82422a4.09451,4.09451,0,0,1,2.01465-4.67578c6.24024,2.44043,14.65918,7.15137,18.43555,10.41308-2.94141,9.46094-5.99024,20.01075-8.30274,28.52149l-4.71484,17.37109q-2.83008,10.42383-4.85547,19.94532c-1.02539,1.02734-4.41992.47851-5.085-1.19336l.59473-3.56836c1.05078-6.61621-1.41309-7.84473-12.87793-10.957l-36.13184-9.81055c-11.46484-3.11231-13.86523-3.20508-16.47851,2.98828l-1.60547,3.85352c-1.41993,1.10644-4.627-.13672-4.99219-1.541,2.1875-6.68066,4.15234-13.23438,6.03906-20.18359,1.791-6.59961,3.41016-13.248,4.76172-19.59668,1.02441-1.02735,4.41992-.4795,5.084,1.19433l-.59375,3.56836c-1.05078,6.61524,1.41309,7.84375,12.87793,10.957Z" transform="translate(-15.8081 -16.33829)" style="fill: #231f20"/>
      <path d="M1569.97461,966.94238c-.50391,3.56446-.52832,3.74219,3.01367,5.69629l8.10156,4.415c5.91211,3.19727,7.23438,2.83887,8.29688-.82812l1.13867-4.20118c1.24609-1.09765,4.55664-.08593,5.06836,1.44141-1.1875,5.83106-1.99316,10.26172-2.67187,15.07422a104.93866,104.93866,0,0,0-1.20118,12.37305c-.96484,1.68164-4.73242,1.332-5.24414-.19532l-.082-3.2832c-.16406-6.56641-1.87109-7.35254-14.07715-14.89258L1534.833,959.62012c-4.68848-2.84278-7.083-3.90821-9.4502-3.87891-.61914-4.63183-4.9082-11.59766-6.71777-12.94531a2.971,2.971,0,0,1-.10449-1.832c.09961-.71289,1.09179-1.30078,2.61914-1.81153,1.7041-.48632,5.623-1.20605,22.21289-5.40918l44.65527-11.15039c7.73438-1.998,8.98047-3.0957,10.59863-9.41015l.42969-1.75782c1.0918-1.30078,4.98828-.56835,5.09375,1.2627-1.11035,5.29688-2.11914,11.15332-3.125,18.2832-.95605,6.77246-1.5332,12.14453-1.98047,17.89942-.78711,1.707-4.22265,1.585-5.24414-.19532l-.28515-3.12988c-.26172-3.30957-.82227-4.47851-4.38477-3.709l-12.16406,2.46484c-3.918.71875-3.96875,1.0752-4.64844,5.8877Zm-4.96289-13.78906c.7793-5.52441.67676-6.084-3.4707-5.0332-8.11622,2.12695-17.50489,4.25586-21.85645,5.459,6.01465,3.75684,10.21777,6.168,20.334,11.77539,2.70118,1.47266,3.00684,1.87891,3.66114-2.7539Z" transform="translate(-15.8081 -16.33829)" style="fill: #231f20"/>
    </g>
    <g>
      <path d="M1123.47269,500.22459q-61.6758-107.90922-236.6836-107.93948-45.68264,0-82.2349,6.5488V385.43159h-13.7051L536.7124,501.93059v61.95022q25.6758,0,43.8281,18a59.35027,59.35027,0,0,1,18.1231,43.67678v505.9873l.3047-5.7266a60.18558,60.18558,0,0,1-18.1543,43.9824q-18.1377,18.27255-44.1016,18.2735h-7.7061v68.8027H886.78909q174.9756,0,236.6836-108.2148,51.39838-89.9121,51.41209-324.06639Q1174.88478,590.455,1123.47269,500.22459ZM958.57809,1210.916a40.42452,40.42452,0,0,1-29.8203,12.5488h-29.1465v-36.2441h-33.3808q-25.7205,0-43.7056-18.1231-18.003-18.1377-17.9707-43.8594V460.81441q6.8526-34.26423,40.5391-34.2646h83.6645a40.84692,40.84692,0,0,1,29.5469,12.1523q12.4248,12.1509,12.4238,28.9639v713.27928A40.17528,40.17528,0,0,1,958.57809,1210.916Z" transform="translate(-15.8081 -16.33829)" style="fill: #231f20"/>
      <g>
        <path d="M1002.13089,526.206c-.3965-10.6602-.7618-21.0146-1.127-31.1279h69.6543a191.626,191.626,0,0,1,22.8457,30.8222Z" transform="translate(-15.8081 -16.33829)" style="fill: #f27fa0"/>
        <path d="M1003.56249,598.14641v-30.8222h109.0684q5.9853,20.28225,8.5586,30.8222Z" transform="translate(-15.8081 -16.33829)" style="fill: #f27fa0"/>
        <path d="M1003.56249,670.1171V639.26359l128.1953-.27438c1.1563,8.0108,2.375,18.39549,3.7149,31.12789Z" transform="translate(-15.8081 -16.33829)" style="fill: #f27fa0"/>
        <path d="M1003.56249,742.3603v-31.126H1138.916q.54793,12.2901,1.125,31.126Z" transform="translate(-15.8081 -16.33829)" style="fill: #f27fa0"/>
        <polygon points="988.331 797.962 987.754 767.14 1124.813 767.14 1124.813 797.962 988.331 797.962" style="fill: #f27fa0"/>
        <path d="M1140.62109,886.2714h-136.207V855.4189h136.207Z" transform="translate(-15.8081 -16.33829)" style="fill: #f27fa0"/>
        <path d="M652.9077,502.205l-34.539-.27442,52.2646-24.27438A196.85668,196.85668,0,0,0,652.9077,502.205Z" transform="translate(-15.8081 -16.33829)" style="fill: #f27fa0"/>
        <path d="M1137.75779,958.4863h-134.1953V927.39059h135.9004C1138.88479,941.2773,1138.30659,951.6621,1137.75779,958.4863Z" transform="translate(-15.8081 -16.33829)" style="fill: #f27fa0"/>
        <path d="M624.0942,569.88081q-9.731-14.80083-26.2841-26.5586h36.2753Q626.045,563.058,624.0942,569.88081Z" transform="translate(-15.8081 -16.33829)" style="fill: #f27fa0"/>
        <path d="M1127.76759,1030.457h-124.2051V999.6035h131.0586Q1130.59869,1020.161,1127.76759,1030.457Z" transform="translate(-15.8081 -16.33829)" style="fill: #f27fa0"/>
        <path d="M1109.76759,1102.39839h-106.2051v-30.8242H1120.916A302.46383,302.46383,0,0,1,1109.76759,1102.39839Z" transform="translate(-15.8081 -16.33829)" style="fill: #f27fa0"/>
        <path d="M1058.38669,1174.36709H998.416q1.13968-12.24315,2.28319-30.8535h85.9512Q1072.07519,1162.97849,1058.38669,1174.36709Z" transform="translate(-15.8081 -16.33829)" style="fill: #f27fa0"/>
        <path d="M634.3589,1157.52339a105.60255,105.60255,0,0,0,7.4316-28.2637q10.5528,23.1153,14.2852,28.8438Z" transform="translate(-15.8081 -16.33829)" style="fill: #f27fa0"/>
        <path d="M568.3882,1222.61129l.5781-4.8438q13.70655-4.292,31.4014-17.4199h89.9717a208.05125,208.05125,0,0,0,30.2431,22.2637Z" transform="translate(-15.8081 -16.33829)" style="fill: #f27fa0"/>
      </g>
    </g>
  </g>
</svg>
